<?xml version="1.0" encoding="utf-8"?>
<!-- Generator: Adobe Illustrator 28.0.0, SVG Export Plug-In . SVG Version: 6.00 Build 0)  -->
<svg version="1.1" id="Calque_1" xmlns="http://www.w3.org/2000/svg" xmlns:xlink="http://www.w3.org/1999/xlink" x="0px" y="0px"
	 viewBox="0 0 50 50" style="enable-background:new 0 0 50 50;" xml:space="preserve">
<style type="text/css">
	.st0{fill:url(#SVGID_1_);}
	.st1{fill:url(#SVGID_00000165929832596362883900000010717293347811106455_);}
	.st2{fill:url(#SVGID_00000034806324187707390720000017493199270138375337_);}
	.st3{fill:url(#SVGID_00000033329362686062962700000003089234431564811169_);}
	.st4{fill:url(#SVGID_00000124848252989168506580000010065588034619247803_);}
	.st5{fill:url(#SVGID_00000059279804744670135710000007627194131845606794_);}
	.st6{fill:url(#SVGID_00000113323225071343542700000010147328309813293966_);}
	.st7{fill:url(#SVGID_00000024004149844721839190000006218450661547244162_);}
	.st8{fill:#FEBF00;}
	.st9{fill:#EA0F01;}
</style>
<g>
	<g>
		
			<radialGradient id="SVGID_1_" cx="1593.4526" cy="1234.1896" r="4.4787" gradientTransform="matrix(0 1 -1 0 1259.1624 -1585.2043)" gradientUnits="userSpaceOnUse">
			<stop  offset="0" style="stop-color:#4272B8"/>
			<stop  offset="1" style="stop-color:#07B793"/>
		</radialGradient>
		<path class="st0" d="M30.7,7.7l-4.1-1.8c-1.1-0.5-2.3-0.4-3.3,0l-4,1.7l5.7,3.3L30.7,7.7z"/>
		
			<radialGradient id="SVGID_00000129206809890015523610000003246912400044130456_" cx="1597.8943" cy="1221.8719" r="4.0827" gradientTransform="matrix(0 1 -1 0 1259.1624 -1585.2043)" gradientUnits="userSpaceOnUse">
			<stop  offset="0" style="stop-color:#4272B8"/>
			<stop  offset="1" style="stop-color:#07B793"/>
		</radialGradient>
		<path style="fill:url(#SVGID_00000129206809890015523610000003246912400044130456_);" d="M33.2,8.6l4.2,1.7c1,0.4,1.8,1.2,2.3,2.3
			l1.8,4.2L35,15L33.2,8.6z"/>
		
			<radialGradient id="SVGID_00000172410016004545105030000010210193730295297467_" cx="1610.2118" cy="1217.4026" r="4.5177" gradientTransform="matrix(0 1 -1 0 1259.1624 -1585.2043)" gradientUnits="userSpaceOnUse">
			<stop  offset="0" style="stop-color:#4272B8"/>
			<stop  offset="1" style="stop-color:#07B793"/>
		</radialGradient>
		<path style="fill:url(#SVGID_00000172410016004545105030000010210193730295297467_);" d="M42.4,19.2l1.8,4.2c0.4,1,0.4,2.2,0,3.3
			l-1.8,4.2L39.1,25L42.4,19.2z"/>
		
			<radialGradient id="SVGID_00000011021621710392990770000015856727271141158835_" cx="1622.5046" cy="1221.8719" r="4.1001" gradientTransform="matrix(0 1 -1 0 1259.1624 -1585.2043)" gradientUnits="userSpaceOnUse">
			<stop  offset="0" style="stop-color:#4272B8"/>
			<stop  offset="1" style="stop-color:#07B793"/>
		</radialGradient>
		<path style="fill:url(#SVGID_00000011021621710392990770000015856727271141158835_);" d="M41.4,33.2l-1.8,4.3
			c-0.4,1-1.3,1.8-2.3,2.3l-4.1,1.7l1.7-6.5L41.4,33.2z"/>
		
			<radialGradient id="SVGID_00000005247580300919738180000012473222473144381583_" cx="1597.8943" cy="1246.4526" r="4.0827" gradientTransform="matrix(0 1 -1 0 1259.1624 -1585.2043)" gradientUnits="userSpaceOnUse">
			<stop  offset="0" style="stop-color:#4272B8"/>
			<stop  offset="1" style="stop-color:#07B793"/>
		</radialGradient>
		<path style="fill:url(#SVGID_00000005247580300919738180000012473222473144381583_);" d="M16.8,8.6l-4.2,1.7
			c-1,0.4-1.8,1.2-2.3,2.3l-1.8,4.2L15,15L16.8,8.6z"/>
		
			<radialGradient id="SVGID_00000023247792591959070370000001167344071940994745_" cx="1610.2118" cy="1250.922" r="4.5177" gradientTransform="matrix(0 1 -1 0 1259.1624 -1585.2043)" gradientUnits="userSpaceOnUse">
			<stop  offset="0" style="stop-color:#4272B8"/>
			<stop  offset="1" style="stop-color:#07B793"/>
		</radialGradient>
		<path style="fill:url(#SVGID_00000023247792591959070370000001167344071940994745_);" d="M7.6,19.2l-1.8,4.2c-0.4,1-0.4,2.2,0,3.3
			l1.8,4.2l3.3-5.8L7.6,19.2z"/>
		
			<radialGradient id="SVGID_00000052812971021678052620000015589059590352364682_" cx="1622.5046" cy="1246.4526" r="4.1001" gradientTransform="matrix(0 1 -1 0 1259.1624 -1585.2043)" gradientUnits="userSpaceOnUse">
			<stop  offset="0" style="stop-color:#4272B8"/>
			<stop  offset="1" style="stop-color:#07B793"/>
		</radialGradient>
		<path style="fill:url(#SVGID_00000052812971021678052620000015589059590352364682_);" d="M8.6,33.2l1.8,4.3c0.4,1,1.3,1.8,2.3,2.3
			l4.1,1.7l-1.7-6.5L8.6,33.2z"/>
		
			<radialGradient id="SVGID_00000103233699516015348060000012102829530021428404_" cx="1626.9562" cy="1234.1896" r="4.4787" gradientTransform="matrix(0 1 -1 0 1259.1624 -1585.2043)" gradientUnits="userSpaceOnUse">
			<stop  offset="0" style="stop-color:#4272B8"/>
			<stop  offset="1" style="stop-color:#07B793"/>
		</radialGradient>
		<path style="fill:url(#SVGID_00000103233699516015348060000012102829530021428404_);" d="M30.7,42.3l-4.1,1.8
			c-1.1,0.5-2.3,0.4-3.3,0l-4-1.7l5.7-3.3L30.7,42.3z"/>
	</g>
	<g>
		<path class="st8" d="M29.4,21.9c0,0.8-0.2,1-0.7,1.1c-0.3,0-0.5-0.1-0.7-0.3c-0.1-0.2-0.2-0.4-0.3-0.6c-0.3-0.5-0.6-1.1-1.1-1.5
			c-0.4-0.4-0.9-0.6-1.5-0.5c-0.4,0.1-0.8,0.3-1.1,0.6c-0.3,0.3-0.6,0.6-0.8,1c-0.2,0.2-0.3,0.5-0.5,0.7c-0.4,0.4-0.9,0.4-1.2,0
			c-0.2-0.2-0.2-0.5-0.2-0.8c0.2-0.8,0.6-1.5,1.1-2.1c0.7-0.8,1.6-1.3,2.7-1.4c0.8-0.1,1.6,0.1,2.3,0.5
			C28.6,19.5,29.3,20.7,29.4,21.9z"/>
		<path class="st8" d="M24.5,28.6c0-0.5,0-1.1,0.2-1.6c0-0.1,0.1-0.3,0.2-0.4c0.2-0.4,0.8-0.4,1,0c0.1,0.2,0.2,0.4,0.2,0.6
			c0.2,0.8,0.2,1.7,0.2,2.5c0,0.4,0,0.9-0.1,1.3c-0.1,0.2-0.2,0.5-0.4,0.7c-0.3,0.3-0.6,0.2-0.8-0.1c-0.2-0.3-0.2-0.6-0.3-1
			c0-0.2-0.1-0.4-0.1-0.6C24.5,29.5,24.5,29.1,24.5,28.6z"/>
		<path class="st9" d="M23.2,25.2c0.1-0.3,0.2-0.5,0.3-0.7c0-0.1,0-0.1-0.1-0.2c-0.3-0.2-0.5-0.3-0.8-0.5c-0.1-0.1-0.2-0.2-0.3-0.2
			c-0.1-0.1-0.2-0.3-0.1-0.4c0-0.1,0.1-0.2,0.2-0.3c0.1-0.1,0.2-0.1,0.4-0.1c0.3,0.1,0.6,0.2,0.8,0.3c0.1,0,0.2,0,0.2,0.1
			c0.1,0,0.1,0,0.2-0.1c0.1-0.3,0.3-0.5,0.5-0.7c0.2-0.2,0.5-0.2,0.8-0.1c0.3,0.2,0.6,0.4,0.9,0.7c0,0,0,0.1,0.1,0.1
			c0.1,0.1,0.1,0.1,0.2,0c0.1-0.1,0.3-0.2,0.4-0.3c0.3-0.2,0.4-0.1,0.6,0.1c0,0,0,0.1,0,0.2c-0.1,0.1-0.1,0.2-0.2,0.3
			c-0.1,0.1-0.3,0.2-0.4,0.4c-0.1,0.1-0.1,0.1,0,0.2c0.1,0.2,0.2,0.4,0.3,0.7c0,0.1,0.1,0.1,0.1,0.1c0.2-0.1,0.4-0.1,0.6-0.2
			c0.1,0,0.2,0,0.3,0.1c0.1,0.1,0.1,0.3,0,0.4c-0.1,0.3-0.4,0.5-0.6,0.6c-0.1,0-0.1,0.1-0.1,0.2c0.1,0.3,0.2,0.7,0.3,1
			c0.1,0.2,0.1,0.2,0.2,0.1c0.2-0.1,0.5-0.1,0.7-0.2c0.1,0,0.3,0,0.4,0.2c0.1,0.1,0,0.3,0,0.4c-0.1,0.1-0.3,0.3-0.4,0.4
			c-0.1,0.1-0.3,0.2-0.5,0.3c-0.1,0-0.1,0.1-0.1,0.2c0.1,0.3,0.2,0.7,0.2,1c0,0.1,0.1,0.1,0.2,0.1c0.2-0.1,0.5-0.1,0.7-0.2
			c0,0,0.1,0,0.1,0c0.2,0,0.4,0.2,0.2,0.4c-0.1,0.2-0.2,0.3-0.4,0.4c-0.2,0.1-0.4,0.2-0.6,0.4c-0.1,0.1-0.1,0.1-0.1,0.2
			c0.1,0.3,0.1,0.5,0.2,0.8c0,0.2,0,0.3-0.1,0.4c-0.2,0.1-0.3,0.2-0.5,0.3c-0.1,0.1-0.2,0-0.3-0.1c-0.1-0.1-0.1-0.2-0.2-0.3
			c-0.2-0.7-0.5-1.4-0.7-2.2c-0.5-1.5-0.9-3-1.4-4.4c-0.1-0.2-0.1-0.3-0.2-0.5c0,0-0.1-0.1-0.1-0.1c0,0-0.1,0.1-0.1,0.1
			c-0.1,0.2-0.1,0.4-0.2,0.6c-0.4,1.5-0.9,3-1.3,4.5c-0.2,0.6-0.4,1.3-0.6,1.9c-0.1,0.5-0.5,0.5-0.8,0.5c-0.2,0-0.3-0.1-0.3-0.3
			c0-0.4,0-0.8,0-1.1c0-0.4,0.1-0.8,0.2-1.3c0-0.1,0-0.1-0.1-0.1c-0.3-0.1-0.5-0.2-0.8-0.3c-0.2-0.1-0.4-0.2-0.6-0.3
			c-0.3-0.1-0.3-0.3-0.2-0.6c0.1-0.3,0.4-0.4,0.7-0.3c0.3,0.1,0.6,0.2,1,0.3c0.1,0,0.2,0,0.2,0.1c0.1,0,0.1,0,0.2-0.1
			c0.1-0.3,0.2-0.6,0.3-0.8c0-0.1,0-0.2,0-0.2c-0.2-0.3-0.5-0.5-0.8-0.7c-0.1-0.1-0.3-0.2-0.4-0.3c-0.2-0.1-0.3-0.2-0.3-0.5
			c0-0.2,0.2-0.4,0.4-0.5c0.3-0.1,0.5-0.1,0.8,0c0.2,0.1,0.4,0.2,0.6,0.2C23.1,25.1,23.2,25.2,23.2,25.2z"/>
	</g>
</g>
</svg>
