<?xml version="1.0" encoding="utf-8"?>
<!-- Generator: Adobe Illustrator 28.0.0, SVG Export Plug-In . SVG Version: 6.00 Build 0)  -->
<svg version="1.1" id="Calque_1" xmlns="http://www.w3.org/2000/svg" xmlns:xlink="http://www.w3.org/1999/xlink" x="0px" y="0px"
	 viewBox="0 0 130.9 70.9" style="enable-background:new 0 0 130.9 70.9;" xml:space="preserve">
<style type="text/css">
	.st0{fill:#FFFFFF;}
	.st1{fill:#EA0F01;}
</style>
<g>
	<path class="st0" d="M65.9,17.6c0.1-2.4,0.5-4.6,1.2-6.8c0.5-1.5,1.1-2.9,1.9-4.1c0.5-0.7,1-1.3,1.8-1.7c0.4-0.2,0.8-0.3,1.3-0.3
		c0.4,0.1,0.9,0.7,0.7,1.1c-0.3,0.7-0.6,1.3-0.9,2c-1.2,2.5-2.1,5.1-2.6,7.9c-0.2,1.1-0.3,2.3,0,3.4c0.2,1.4,1.1,2.2,2.4,2.6
		c1.7,0.5,3.9-0.1,5-1.4c1-1.2,1.1-2.9,0.4-4.2c-0.4-0.7-1.1-1-1.9-1c-0.8,0.1-1.4,0.5-1.6,1.3c-0.2,0.5,0,0.9,0.4,1.3
		c0.2,0.2,0.5,0.4,0.7,0.6c0.2,0.1,0.3,0.2,0.5,0.4c0.6,0.6,0.3,1.2-0.1,1.6c-0.5,0.4-1.1,0.4-1.7,0.3c-1.2-0.2-2.2-0.8-2.6-1.9
		c-0.3-0.8-0.2-1.6,0.1-2.3c0.9-2.5,3.4-4,6.2-3.3c1.3,0.3,2.1,1.2,2.6,2.4c1.3,2.7,0.8,5.6-1.3,7.8c-1.4,1.5-3.2,2.5-5.3,2.8
		c-2.5,0.3-4.7-0.6-6-3c-0.7-1.2-1-2.4-1.1-3.8C65.9,18.5,65.9,18,65.9,17.6z"/>
	<path class="st0" d="M90.1,25.7c-0.3,0-0.5,0.1-0.7,0.1c-2.9,0.4-5.2-0.5-6.9-2.8c-1.1-1.5-1.1-3,0.1-4.5c0.7-0.9,1.3-1.8,2.2-2.5
		c1.7-1.4,4-1.4,5.5,0c0.4,0.3,0.6,0.8,0.9,1.1c0.1,0.1,0.2,0.3,0.3,0.4c0-0.1,0-0.2,0-0.2c0-0.7-0.2-1.5-0.5-2.1
		c-0.5-1-1.4-1.6-2.5-1.8c-1-0.2-1.9-0.2-2.9,0c-1.1,0.2-2.1,0.6-3.1,0.8c-0.2,0-0.3,0.1-0.5,0.1c-0.5,0.1-0.9-0.4-0.8-1
		c0.2-0.7,0.6-1.2,1.2-1.6c2.3-1.4,4.8-1.9,7.4-1.1c2.4,0.7,3.9,2.3,4.4,4.7c0.4,1.5,0.2,3,0,4.6c-0.3,1.8-0.8,3.5-1.8,5.1
		c-0.3,0.6-0.7,1.1-1,1.6c-0.2,0.3-0.5,0.6-0.9,0.7c-0.4,0.1-0.7-0.1-0.7-0.5c0-0.1,0-0.3,0.1-0.4C90,26.2,90.1,26,90.1,25.7z
		 M89.1,21.6c0-1-0.1-1.8-0.6-2.5c-0.3-0.5-0.7-0.8-1.3-0.7c-0.9,0.1-1.7,0.4-2.3,1c-0.5,0.5-0.7,1.1-0.5,1.7
		c0.3,1.3,1.9,2.6,3.2,2.7c0.4,0,0.7-0.1,1-0.5C89,22.7,89.1,22.1,89.1,21.6z"/>
	<path class="st1" d="M42.3,12c0,1.5-0.4,2-1.4,2.2c-0.6,0.1-1-0.2-1.3-0.7c-0.2-0.4-0.4-0.8-0.6-1.2c-0.6-1.1-1.2-2.1-2.1-3
		c-0.8-0.7-1.7-1.2-2.9-1c-0.8,0.1-1.5,0.5-2.1,1.1c-0.6,0.6-1.1,1.3-1.7,1.9c-0.4,0.4-0.7,0.9-1,1.3c-0.7,0.8-1.7,0.8-2.5,0.1
		c-0.4-0.4-0.5-0.9-0.4-1.5c0.3-1.6,1.1-2.9,2.2-4c1.4-1.6,3.2-2.5,5.3-2.8c1.7-0.2,3.2,0.1,4.6,1.1C40.8,7.2,42.1,9.5,42.3,12z"/>
	<path class="st0" d="M31.8,16.8c0.1-1.5,0.1-3.1,0.5-4.6c0.1-0.4,0.2-0.8,0.4-1.1c0.7-1,2.2-1,2.8,0.1c0.3,0.5,0.4,1,0.5,1.5
		c0.5,2.3,0.7,4.6,0.6,7c0,1.3-0.1,2.5-0.4,3.8c-0.2,0.7-0.4,1.3-1,1.8c-0.9,0.8-1.7,0.7-2.3-0.4c-0.5-0.8-0.6-1.8-0.7-2.7
		c-0.1-0.6-0.2-1.1-0.2-1.7C31.9,19.3,31.9,18,31.8,16.8z"/>
	<path class="st0" d="M96,16.4c0.1-2.5,0.2-4.7,0.8-6.8c0.2-0.7,0.5-1.5,0.9-2.1c0.4-0.5,0.9-1,1.5-1.2c0.9-0.3,1.5,0.3,1.3,1.1
		c-0.1,0.6-0.3,1.1-0.4,1.7c-0.4,1.5-0.6,3-0.7,4.5c-0.1,1.5-0.2,2.9-0.1,4.4c0.1,1.4,0.4,2.8,0.6,4.2c0.2,1,0.3,2,0.4,3
		c0.1,0.6-0.4,1-1,0.9c-0.7-0.2-1.2-0.6-1.6-1.1c-0.6-0.8-0.9-1.8-1.1-2.7C96.1,20.2,96,18.2,96,16.4z"/>
	<path class="st0" d="M46.8,13.5c0.3-0.2,0.6-0.5,0.9-0.7c1.1-0.9,2.2-1.6,3.6-2c0.5-0.1,1.1-0.2,1.7-0.1c0.7,0.1,1.2,0.5,1.5,1.2
		c0.4,0.8,0.6,1.7,0.7,2.7c0.1,0.8,0.1,1.6-0.1,2.4c-0.1,0.5-0.3,0.9-0.7,1.1c-0.2,0.1-0.4,0.1-0.6,0c-0.6-0.4-0.8-1-0.9-1.6
		c-0.1-0.5-0.1-0.9-0.2-1.4c0-0.1,0-0.2-0.1-0.3c-0.2-0.8-0.6-1.1-1.4-0.6c-0.7,0.4-1.4,0.9-2,1.4c-0.8,0.7-1.6,1.4-2.5,2.1
		c-0.3,0.3-0.7,0.5-1.2,0.7c-0.7,0.2-1.4,0-1.7-0.7c-0.2-0.4-0.3-0.9-0.4-1.3c-0.1-1.1-0.1-2.1,0.2-3.2c0.1-0.6,0.3-1.1,0.8-1.5
		c0.2-0.1,0.3-0.2,0.5-0.3c0.6-0.2,1.1,0.1,1.3,0.8c0.1,0.4,0.1,0.7,0.2,1.1C46.7,13.2,46.8,13.3,46.8,13.5
		C46.8,13.4,46.8,13.5,46.8,13.5z"/>
	<path class="st0" d="M62,20c0,1-0.1,1.9-0.1,2.9c0,0.2,0.1,0.3,0.3,0.3c0.4,0,0.8,0.1,1.2,0.2c0.6,0.2,0.8,0.6,0.6,1.2
		c-0.2,0.5-0.5,0.8-1,1c-0.6,0.3-1.2,0.4-1.8,0.5c-1.3,0.1-2.5,0.1-3.7-0.5c-0.3-0.1-0.5-0.3-0.7-0.5c-0.5-0.5-0.4-1.2,0.3-1.5
		c0.3-0.1,0.5-0.2,0.8-0.2c0.2,0,0.3-0.1,0.2-0.3c-0.1-1.1-0.2-2.3-0.2-3.4c-0.1-1.4,0-2.8,0.5-4.2c0.1-0.3,0.3-0.7,0.5-1
		c0.5-0.7,1.2-0.8,1.9-0.3c0.7,0.5,1,1.2,1.1,2C62,17.4,62,18.7,62,20C62.1,20,62,20,62,20z"/>
	<path class="st0" d="M47.8,22.8c0,0.7-0.1,1.4-0.3,2.1c-0.2,0.6-0.5,1-1.2,1.2c-0.7,0.2-1.3-0.2-1.5-0.9c-0.1-0.6-0.2-1.2-0.3-1.9
		c-0.1-0.5-0.2-1.1-0.2-1.6c0-0.5,0-0.9,0.1-1.4c0-0.2,0.2-0.5,0.4-0.6c0.3-0.4,0.7-0.5,1.2-0.3c1,0.4,1.6,1.1,1.7,2.1
		C47.8,21.9,47.8,22.3,47.8,22.8z"/>
	<path class="st0" d="M62,10.8c0,1-1,2-2,2.1c-0.6,0-1.1-0.1-1.5-0.6c-0.5-0.6-0.6-2,0.1-2.7c0.8-0.7,1.8-0.8,2.7-0.1
		C61.7,9.9,62,10.3,62,10.8z"/>
	<path class="st1" d="M13.6,35.1c0.3-0.7,0.6-1.4,0.8-2.1c0.1-0.2-0.1-0.4-0.3-0.5c-0.7-0.5-1.4-0.9-2.2-1.4
		c-0.3-0.2-0.6-0.4-0.8-0.7c-0.4-0.3-0.5-0.8-0.3-1.2c0.1-0.3,0.3-0.6,0.5-0.9c0.3-0.3,0.7-0.4,1.1-0.2c0.8,0.3,1.6,0.6,2.3,0.9
		c0.2,0.1,0.4,0.1,0.6,0.2c0.3,0.1,0.4,0,0.5-0.2c0.4-0.7,0.9-1.4,1.5-1.9c0.7-0.6,1.4-0.7,2.2-0.3c1,0.5,1.7,1.2,2.4,2.1
		c0.1,0.1,0.1,0.2,0.2,0.2c0.2,0.2,0.3,0.3,0.5,0.1c0.4-0.3,0.7-0.7,1.1-1c0.8-0.6,1.2-0.3,1.7,0.4c0.1,0.1,0.1,0.4,0,0.6
		c-0.2,0.3-0.4,0.6-0.6,0.9c-0.3,0.4-0.7,0.7-1.1,1c-0.2,0.2-0.2,0.3-0.1,0.5c0.3,0.6,0.5,1.2,0.8,1.8c0.1,0.2,0.2,0.3,0.4,0.2
		c0.5-0.2,1.1-0.3,1.6-0.5c0.3-0.1,0.7-0.1,0.9,0.2c0.2,0.3,0.3,0.7,0.1,1.1c-0.4,0.7-1,1.3-1.7,1.7c-0.2,0.1-0.3,0.2-0.2,0.5
		c0.3,1,0.5,2,0.8,2.9c0.1,0.5,0.2,0.5,0.7,0.3c0.6-0.2,1.3-0.4,1.9-0.5c0.4-0.1,0.8,0,1,0.4c0.2,0.4,0.1,0.8-0.1,1.1
		c-0.3,0.4-0.7,0.8-1.1,1.1c-0.4,0.3-0.9,0.5-1.3,0.8c-0.2,0.1-0.3,0.2-0.3,0.5c0.2,1,0.4,2,0.6,2.9c0.1,0.3,0.2,0.3,0.4,0.3
		c0.7-0.1,1.4-0.3,2.1-0.4c0.1,0,0.3,0,0.4,0c0.6,0,1,0.5,0.7,1c-0.3,0.4-0.7,0.8-1.1,1.1c-0.5,0.4-1.1,0.7-1.6,1
		c-0.3,0.2-0.3,0.3-0.2,0.6c0.2,0.7,0.3,1.5,0.5,2.2c0.1,0.5,0,0.9-0.4,1.2c-0.4,0.3-0.9,0.6-1.4,0.9c-0.3,0.2-0.6,0.1-0.9-0.2
		c-0.2-0.2-0.4-0.5-0.5-0.8c-0.7-2-1.4-4-2-6c-1.3-4.2-2.5-8.3-3.8-12.5c-0.1-0.5-0.4-0.9-0.6-1.4c-0.1-0.1-0.2-0.2-0.3-0.4
		c-0.1,0.1-0.3,0.3-0.3,0.4c-0.2,0.6-0.4,1.1-0.6,1.7c-1.2,4.2-2.4,8.3-3.6,12.5c-0.5,1.8-1.1,3.6-1.7,5.4c-0.4,1.3-1.3,1.4-2.4,1.3
		c-0.5,0-0.8-0.4-0.8-0.9c0-1.1-0.1-2.1,0-3.2c0.1-1.2,0.4-2.3,0.6-3.5c0-0.2,0-0.3-0.2-0.3c-0.7-0.3-1.5-0.5-2.2-0.8
		c-0.5-0.2-1.1-0.4-1.6-0.7c-0.7-0.4-0.8-0.9-0.5-1.6c0.4-0.8,1-1.1,1.8-0.9c0.9,0.2,1.8,0.5,2.7,0.8c0.2,0.1,0.4,0.1,0.7,0.2
		c0.2,0.1,0.3,0,0.4-0.2c0.3-0.8,0.6-1.6,1-2.4c0.1-0.2,0.1-0.4-0.1-0.6c-0.7-0.8-1.5-1.3-2.3-1.9c-0.4-0.3-0.8-0.5-1.2-0.8
		c-0.5-0.3-0.9-0.6-0.8-1.3c0.1-0.7,0.4-1.2,1.1-1.5c0.7-0.3,1.4-0.2,2.1,0c0.6,0.2,1.2,0.4,1.8,0.6C13.2,35,13.4,35,13.6,35.1z"/>
	<path class="st0" d="M46.3,51c-0.2,0.1-0.3,0.1-0.3,0.2c-1.1,1-2.4,1.3-3.8,1.3c-2.5-0.1-4.7-0.8-6.7-2.3c-1.8-1.4-2.6-3.3-2.4-5.5
		c0.3-3.8,2.3-6.3,5.6-7.8c2.5-1.1,5.5-0.3,7.2,1.8c1.1,1.5,2.3,2.9,3.1,4.6c1.1,2.2,1.8,4.5,1.9,7c0.2,3.1-0.8,5.8-3.2,7.9
		c-0.6,0.5-1.2,0.9-1.9,1.2c-0.6,0.4-0.6,0.3-0.4,1c0.2,0.8,0.4,1.5,0.6,2.3c0.1,0.3,0,0.7,0,1c-0.1,0.6-0.5,0.9-1.1,1
		c-0.5,0.1-0.9-0.2-1.1-0.6c-0.5-1-1-2-1.5-3c-0.1-0.2-0.2-0.4-0.5-0.3c-0.8,0.1-1.6,0.3-2.4,0.4c0.2,0.5,0.4,1,0.5,1.5
		c0.1,0.7,0.3,1.4,0.3,2.1c0,1-0.8,1.4-1.7,1.1c-1-0.4-1.5-1.2-1.8-2.2c-0.2-0.7-0.4-1.4-0.5-2c-0.1-0.3-0.2-0.4-0.5-0.5
		c-1.7-0.1-3.4-0.3-5-0.8c-0.7-0.2-1.4-0.5-2.1-0.8c-0.3-0.2-0.6-0.5-0.8-0.8c-0.3-0.5,0-1,0.6-1.1c1.8-0.1,3.6-0.1,5.4-0.1
		c2.5-0.1,5.1-0.2,7.5-0.9c1.3-0.4,2.5-0.8,3.5-1.7c1.1-0.9,1.5-2.1,1.6-3.5C46.3,51.3,46.3,51.2,46.3,51z M44,45.6
		c-0.1-1.3-0.5-2.4-1.2-3.3c-0.4-0.6-1-1-1.8-1c-1.4-0.1-2.5,0.5-3.6,1.3c-0.5,0.4-0.9,0.9-1,1.5c-0.2,1.1,0.2,2.1,0.9,2.9
		c1.2,1.3,2.8,1.7,4.6,1.6c0.9-0.1,1.5-0.6,1.8-1.5C43.9,46.5,43.9,46,44,45.6z"/>
	<path class="st0" d="M111.2,58.1c-0.1-0.6-0.2-1.3-0.3-1.9c-0.1-0.6-0.1-1.2,0-1.8c0-0.3,0.2-0.7,0.5-1c0.5-0.6,1.4-0.5,1.9,0.2
		c0.3,0.5,0.6,1.2,0.8,1.8c0.2,0.8,0.4,1.5,0.6,2.3c0.1,0.5,0.1,0.5,0.6,0.4c0.7-0.1,1.5-0.3,2.2-0.4c0.4-0.1,0.5-0.1,0.3-0.6
		c-0.5-1-0.9-2-1.1-3c-0.1-0.4-0.1-0.9,0-1.3c0.2-0.7,0.9-1,1.6-0.7c0.5,0.2,0.9,0.6,1.1,1.1c0.4,0.8,0.8,1.7,1.2,2.6
		c0.2,0.3,0.2,0.4,0.5,0.1c0.2-0.3,0.5-0.6,0.6-0.9c0.4-0.8,0.6-1.6,0.6-2.5c0.1-2.1-0.3-4.1-0.8-6.1c-0.4-1.3-0.8-2.6-1.2-3.9
		c0-0.1-0.1-0.3-0.2-0.5c-0.2,0.2-0.3,0.3-0.4,0.5c-0.6,0.8-1.1,1.7-1.8,2.4c-1.1,1.2-2.5,2.1-4.2,2.3c-0.7,0.1-1.4-0.1-2.1-0.4
		c-2.9-1.2-5.1-3.1-6.1-6.1c-0.3-0.9-0.5-1.9-0.3-2.9c0.3-1.1,1.2-1.5,2-0.7c0.6,0.5,1,1.2,1.5,1.8c0.7,0.8,1.3,1.7,2,2.5
		c0.5,0.5,1,0.9,1.7,1.2c0.7,0.3,1.3,0.2,1.8-0.4c0.6-0.7,1.2-1.3,1.7-2c0.7-0.8,1.4-1.7,2.2-2.3c0.2-0.1,0.4-0.2,0.5-0.3
		c0.7-0.4,1.4-0.3,2,0.1c1,0.7,1.6,1.7,2.2,2.7c1.3,2.4,2.2,5,2.7,7.7c0.4,1.8,0.6,3.6,0.5,5.5c-0.1,3.6-1.9,6.2-5,7.8
		c-1.7,0.9-3.6,1.2-5.6,1.4c-2.8,0.2-5.5-0.2-8.1-1.2c-1-0.4-1.9-0.9-2.5-1.8c-0.2-0.3-0.4-0.6-0.5-1c-0.3-0.9,0.3-1.5,1.2-1.4
		c0.8,0.1,1.6,0.3,2.4,0.5c0.9,0.2,1.8,0.3,2.7,0.4C110.9,58.1,111,58.1,111.2,58.1z"/>
	<path class="st0" d="M78.5,40.4c0.1-0.2,0.3-0.3,0.4-0.5c0.8-1.2,1.8-2.2,2.9-3c0.4-0.3,0.9-0.5,1.4-0.6c0.9-0.3,1.7,0,2.3,0.7
		c0.5,0.6,1,1.3,1.4,2.1c1.3,2.4,2.2,4.9,2.6,7.6c0.2,1.1,0.3,2.2,0.1,3.4c-0.1,0.8-0.4,1.6-1.2,2c-0.6,0.4-1.1,0.4-1.6-0.1
		c-0.3-0.3-0.7-0.8-0.8-1.2c-0.5-1.5-1-3.1-1.4-4.6c-0.2-0.8-0.5-1.5-0.7-2.3c0-0.1-0.1-0.2-0.1-0.2c-0.5-0.8-0.8-1-1.6-0.3
		c-0.5,0.4-0.9,1-1.2,1.6c-0.9,1.6-1.7,3.2-2.6,4.8c-0.5,0.9-1.1,1.9-1.7,2.8c-0.4,0.6-0.9,1.1-1.6,1.4c-0.7,0.3-1.6,0.1-1.9-0.6
		c-0.1-0.2-0.2-0.5-0.1-0.8c0.1-1,0.3-2,0.5-3c0.5-2.6,0.9-5.2,0.8-7.8c0-1-0.1-2-0.3-2.9c-0.3-1.2-0.9-1.8-2.2-1.9
		c-0.8-0.1-1.5,0-2.2,0.3c-0.2,0.1-0.5,0.2-0.7,0.3c-1,0.4-1.6-0.2-2-1c-0.3-0.7,0-1.4,0.5-2c0.9-1,2.1-1.4,3.4-1.6
		c1.8-0.3,3.5,0,4.9,1.3c1,0.9,1.6,1.9,1.9,3.1c0.3,0.8,0.4,1.7,0.6,2.6c0,0.2,0.1,0.4,0.1,0.5C78.4,40.4,78.5,40.4,78.5,40.4z"/>
	<path class="st0" d="M60.6,47.1c0.1,0.1,0.3,0.3,0.4,0.4c1.3,1.2,2.5,2.5,3.5,4c0.4,0.6,0.8,1.2,0.9,1.9c0.1,0.4,0,0.6-0.3,0.8
		c-0.5,0.4-1.2,0.4-1.8,0.3c-0.9-0.2-1.7-0.6-2.5-1.1c-2.5-1.7-4.7-3.6-6.6-5.9c-0.6-0.8-1.2-1.6-1.3-2.6c-0.2-1,0.2-1.6,1.2-1.9
		c0.7-0.2,1.3-0.3,2-0.3c1.6,0,3.3,0.1,4.9,0.1c0.6,0,1.2,0,1.8-0.1c0.8-0.1,1-0.6,0.6-1.3c-0.4-0.6-0.9-1.2-1.5-1.7
		c-1-1-2-1.9-3-2.9c-0.4-0.4-0.7-0.9-1.1-1.4c-0.2-0.3-0.2-0.6-0.3-0.9c-0.1-0.9,0.7-1.7,1.6-1.4c0.7,0.2,1.4,0.5,2,0.9
		c3,2,5.5,4.4,7.3,7.6c0.3,0.6,0.6,1.2,0.7,1.9c0.2,1-0.1,1.7-1.1,2.2c-0.8,0.4-1.7,0.7-2.5,0.8c-1.2,0.2-2.5,0.3-3.8,0.4
		c-0.4,0-0.8,0.1-1.2,0.1C60.7,47,60.7,47.1,60.6,47.1z"/>
	<path class="st0" d="M92.1,43.8c0-2.2,0.8-4,2.2-5.7c1.6-2,3.7-3.3,6.3-3.9c1.6-0.4,2.3,0.7,2.5,1.8c0.1,0.5-0.1,0.9-0.4,1.2
		c-0.5,0.4-1.1,0.9-1.6,1.3c-1.1,0.9-2.2,1.8-3.1,3c-1.3,1.9-1.1,3.8,0.4,5.5c0.9,0.9,1.9,1.6,3.1,2.2c0.7,0.4,1.5,0.7,2.2,1.1
		c0.8,0.4,1.2,1.1,1.1,2c-0.1,1-0.9,1.9-2,1.8c-0.9,0-1.7-0.1-2.6-0.4c-2.9-0.9-5.3-2.6-6.8-5.3C92.6,47,92.1,45.4,92.1,43.8z"/>
	<path class="st0" d="M19.5,47.9c-0.1,0.3-0.2,0.6-0.2,0.9c-0.3,1.3-0.7,2.5-1,3.8c-0.1,0.3-0.2,0.5-0.3,0.7
		c-0.2,0.4-0.6,0.7-1.1,0.8c-0.7,0.1-1.2-0.3-1-1c0.4-2,0.7-4,1.1-5.9c0.3-1.6,0.7-3.1,1.2-4.6c0.2-0.5,0.4-1,0.6-1.4
		c0.3-0.6,0.8-0.7,1.1-0.1c0.4,0.7,0.8,1.5,1,2.3c0.6,2,1.1,4,1.7,6c0.3,1,0.5,1.9,0.7,2.9c0.2,0.7-0.6,1.5-1.3,1.4
		c-0.2,0-0.5-0.2-0.5-0.4c-0.3-0.6-0.5-1.2-0.7-1.8c-0.3-1-0.6-2.1-0.9-3.1c-0.1-0.2-0.1-0.3-0.2-0.5C19.6,47.9,19.5,47.9,19.5,47.9
		z"/>
	<path class="st0" d="M59.3,39.3c-0.1,0.3-0.2,0.6-0.3,0.9c-0.6,1-2.1,1.6-3.2,1.3c-1.3-0.4-1.4-1.1-1.1-2.2c0.3-1.1,2-2,3.1-1.8
		C58.6,37.6,59.2,38.3,59.3,39.3z"/>
</g>
</svg>
